<svg width="254" height="58" viewBox="0 0 254 58" fill="none" xmlns="http://www.w3.org/2000/svg">
<rect x="87" width="167" height="58" rx="29" fill="#CCCCCC"/>
<path d="M169.4 35.2C168.813 35.2 168.227 35.1533 167.64 35.06C167.053 34.98 166.5 34.8533 165.98 34.68C165.46 34.4933 164.993 34.2667 164.58 34C164.34 33.84 164.173 33.6467 164.08 33.42C163.987 33.1933 163.953 32.9733 163.98 32.76C164.02 32.5333 164.107 32.34 164.24 32.18C164.387 32.0067 164.567 31.9 164.78 31.86C164.993 31.82 165.227 31.88 165.48 32.04C166.067 32.3867 166.687 32.64 167.34 32.8C167.993 32.96 168.68 33.04 169.4 33.04C170.453 33.04 171.22 32.8667 171.7 32.52C172.18 32.16 172.42 31.7 172.42 31.14C172.42 30.6733 172.247 30.3067 171.9 30.04C171.567 29.7733 170.987 29.5533 170.16 29.38L167.96 28.92C166.693 28.6533 165.747 28.2067 165.12 27.58C164.507 26.94 164.2 26.1 164.2 25.06C164.2 24.4067 164.333 23.8133 164.6 23.28C164.867 22.7467 165.24 22.2867 165.72 21.9C166.213 21.5133 166.793 21.22 167.46 21.02C168.14 20.8067 168.887 20.7 169.7 20.7C170.5 20.7 171.26 20.8 171.98 21C172.7 21.2 173.347 21.4933 173.92 21.88C174.133 22.0267 174.273 22.2067 174.34 22.42C174.42 22.6333 174.44 22.8467 174.4 23.06C174.36 23.26 174.267 23.4333 174.12 23.58C173.973 23.7267 173.787 23.8133 173.56 23.84C173.347 23.8667 173.1 23.8 172.82 23.64C172.327 23.36 171.827 23.16 171.32 23.04C170.813 22.92 170.267 22.86 169.68 22.86C169.067 22.86 168.54 22.9467 168.1 23.12C167.66 23.2933 167.32 23.54 167.08 23.86C166.853 24.1667 166.74 24.5333 166.74 24.96C166.74 25.44 166.9 25.8267 167.22 26.12C167.54 26.4 168.087 26.62 168.86 26.78L171.04 27.24C172.36 27.52 173.34 27.96 173.98 28.56C174.633 29.16 174.96 29.96 174.96 30.96C174.96 31.6 174.827 32.18 174.56 32.7C174.307 33.22 173.933 33.6667 173.44 34.04C172.96 34.4133 172.38 34.7 171.7 34.9C171.02 35.1 170.253 35.2 169.4 35.2ZM178.157 35.14C177.757 35.14 177.451 35.02 177.237 34.78C177.024 34.54 176.917 34.2067 176.917 33.78V26.44C176.917 26 177.024 25.6667 177.237 25.44C177.451 25.2 177.757 25.08 178.157 25.08C178.557 25.08 178.864 25.2 179.077 25.44C179.304 25.6667 179.417 26 179.417 26.44V33.78C179.417 34.2067 179.311 34.54 179.097 34.78C178.884 35.02 178.571 35.14 178.157 35.14ZM178.157 23.22C177.691 23.22 177.324 23.1067 177.057 22.88C176.804 22.64 176.677 22.3133 176.677 21.9C176.677 21.4733 176.804 21.1467 177.057 20.92C177.324 20.6933 177.691 20.58 178.157 20.58C178.637 20.58 179.004 20.6933 179.257 20.92C179.511 21.1467 179.637 21.4733 179.637 21.9C179.637 22.3133 179.511 22.64 179.257 22.88C179.004 23.1067 178.637 23.22 178.157 23.22ZM183.255 35.16C182.855 35.16 182.548 35.0533 182.335 34.84C182.122 34.6133 182.015 34.2933 182.015 33.88V26.32C182.015 25.9067 182.122 25.5933 182.335 25.38C182.548 25.1667 182.848 25.06 183.235 25.06C183.622 25.06 183.922 25.1667 184.135 25.38C184.348 25.5933 184.455 25.9067 184.455 26.32V27.68L184.235 27.18C184.528 26.4733 184.982 25.94 185.595 25.58C186.222 25.2067 186.928 25.02 187.715 25.02C188.502 25.02 189.148 25.1667 189.655 25.46C190.162 25.7533 190.542 26.2 190.795 26.8C191.048 27.3867 191.175 28.1333 191.175 29.04V33.88C191.175 34.2933 191.068 34.6133 190.855 34.84C190.642 35.0533 190.335 35.16 189.935 35.16C189.535 35.16 189.222 35.0533 188.995 34.84C188.782 34.6133 188.675 34.2933 188.675 33.88V29.16C188.675 28.4 188.528 27.8467 188.235 27.5C187.955 27.1533 187.515 26.98 186.915 26.98C186.182 26.98 185.595 27.2133 185.155 27.68C184.728 28.1333 184.515 28.74 184.515 29.5V33.88C184.515 34.7333 184.095 35.16 183.255 35.16ZM198.274 38.8C197.554 38.8 196.854 38.7333 196.174 38.6C195.507 38.4667 194.901 38.26 194.354 37.98C194.101 37.8467 193.927 37.6867 193.834 37.5C193.754 37.3133 193.727 37.12 193.754 36.92C193.794 36.7333 193.874 36.5667 193.994 36.42C194.127 36.2733 194.287 36.1733 194.474 36.12C194.661 36.0667 194.854 36.0933 195.054 36.2C195.641 36.4933 196.194 36.68 196.714 36.76C197.247 36.8533 197.701 36.9 198.074 36.9C198.967 36.9 199.634 36.68 200.074 36.24C200.527 35.8133 200.754 35.1733 200.754 34.32V32.52H200.934C200.734 33.2 200.314 33.7467 199.674 34.16C199.047 34.56 198.334 34.76 197.534 34.76C196.654 34.76 195.887 34.56 195.234 34.16C194.581 33.7467 194.074 33.1733 193.714 32.44C193.354 31.7067 193.174 30.8533 193.174 29.88C193.174 29.1467 193.274 28.4867 193.474 27.9C193.687 27.3 193.981 26.7867 194.354 26.36C194.741 25.9333 195.201 25.6067 195.734 25.38C196.281 25.14 196.881 25.02 197.534 25.02C198.361 25.02 199.081 25.2267 199.694 25.64C200.321 26.04 200.727 26.5733 200.914 27.24L200.714 27.74V26.32C200.714 25.9067 200.821 25.5933 201.034 25.38C201.261 25.1667 201.567 25.06 201.954 25.06C202.354 25.06 202.661 25.1667 202.874 25.38C203.087 25.5933 203.194 25.9067 203.194 26.32V34.02C203.194 35.6067 202.774 36.8 201.934 37.6C201.094 38.4 199.874 38.8 198.274 38.8ZM198.214 32.86C198.734 32.86 199.181 32.74 199.554 32.5C199.927 32.26 200.214 31.92 200.414 31.48C200.627 31.0267 200.734 30.4933 200.734 29.88C200.734 28.96 200.507 28.24 200.054 27.72C199.601 27.1867 198.987 26.92 198.214 26.92C197.694 26.92 197.247 27.04 196.874 27.28C196.501 27.52 196.207 27.86 195.994 28.3C195.794 28.74 195.694 29.2667 195.694 29.88C195.694 30.8 195.921 31.5267 196.374 32.06C196.827 32.5933 197.441 32.86 198.214 32.86ZM217.314 35.2C216.341 35.2 215.481 35.0733 214.734 34.82C214.001 34.5667 213.381 34.1933 212.874 33.7C212.367 33.1933 211.987 32.5667 211.734 31.82C211.481 31.0733 211.354 30.2067 211.354 29.22V22.04C211.354 21.6 211.461 21.2733 211.674 21.06C211.901 20.8467 212.221 20.74 212.634 20.74C213.047 20.74 213.361 20.8467 213.574 21.06C213.801 21.2733 213.914 21.6 213.914 22.04V29.2C213.914 30.4667 214.201 31.42 214.774 32.06C215.361 32.6867 216.207 33 217.314 33C218.421 33 219.261 32.6867 219.834 32.06C220.407 31.42 220.694 30.4667 220.694 29.2V22.04C220.694 21.6 220.801 21.2733 221.014 21.06C221.241 20.8467 221.561 20.74 221.974 20.74C222.374 20.74 222.681 20.8467 222.894 21.06C223.121 21.2733 223.234 21.6 223.234 22.04V29.22C223.234 30.5267 223.007 31.6267 222.554 32.52C222.114 33.4133 221.454 34.0867 220.574 34.54C219.694 34.98 218.607 35.2 217.314 35.2ZM227.22 38.76C226.82 38.76 226.513 38.6533 226.3 38.44C226.086 38.2267 225.98 37.9133 225.98 37.5V26.32C225.98 25.9067 226.086 25.5933 226.3 25.38C226.513 25.1667 226.813 25.06 227.2 25.06C227.6 25.06 227.906 25.1667 228.12 25.38C228.333 25.5933 228.44 25.9067 228.44 26.32V27.88L228.22 27.28C228.42 26.6 228.826 26.0533 229.44 25.64C230.066 25.2267 230.793 25.02 231.62 25.02C232.473 25.02 233.22 25.2267 233.86 25.64C234.513 26.0533 235.02 26.64 235.38 27.4C235.74 28.1467 235.92 29.0467 235.92 30.1C235.92 31.14 235.74 32.0467 235.38 32.82C235.02 33.58 234.52 34.1667 233.88 34.58C233.24 34.9933 232.486 35.2 231.62 35.2C230.806 35.2 230.093 35 229.48 34.6C228.866 34.1867 228.453 33.6533 228.24 33H228.48V37.5C228.48 37.9133 228.366 38.2267 228.14 38.44C227.926 38.6533 227.62 38.76 227.22 38.76ZM230.92 33.3C231.413 33.3 231.846 33.18 232.22 32.94C232.593 32.7 232.88 32.3467 233.08 31.88C233.293 31.4 233.4 30.8067 233.4 30.1C233.4 29.0333 233.173 28.24 232.72 27.72C232.266 27.1867 231.666 26.92 230.92 26.92C230.426 26.92 229.993 27.04 229.62 27.28C229.246 27.5067 228.953 27.86 228.74 28.34C228.54 28.8067 228.44 29.3933 228.44 30.1C228.44 31.1533 228.666 31.9533 229.12 32.5C229.573 33.0333 230.173 33.3 230.92 33.3Z" fill="white"/>
<rect width="145" height="58" rx="29" fill="#FF4B3A"/>
<path d="M19.3811 35.2632C18.9678 35.2632 18.6478 35.1498 18.4211 34.9232C18.1945 34.6832 18.0811 34.3565 18.0811 33.9432V22.4032C18.0811 21.9765 18.1878 21.6565 18.4011 21.4432C18.6278 21.2165 18.9478 21.1032 19.3611 21.1032C19.7745 21.1032 20.0878 21.2165 20.3011 21.4432C20.5278 21.6565 20.6411 21.9765 20.6411 22.4032V33.0832H26.4411C26.8011 33.0832 27.0745 33.1765 27.2611 33.3632C27.4611 33.5498 27.5611 33.8165 27.5611 34.1632C27.5611 34.5098 27.4611 34.7832 27.2611 34.9832C27.0745 35.1698 26.8011 35.2632 26.4411 35.2632H19.3811ZM33.434 35.4632C32.4206 35.4632 31.5406 35.2565 30.794 34.8432C30.0473 34.4298 29.4673 33.8432 29.054 33.0832C28.6406 32.3098 28.434 31.4032 28.434 30.3632C28.434 29.5765 28.5473 28.8765 28.774 28.2632C29.014 27.6365 29.354 27.1032 29.794 26.6632C30.234 26.2098 30.7606 25.8698 31.374 25.6432C31.9873 25.4032 32.674 25.2832 33.434 25.2832C34.4473 25.2832 35.3273 25.4898 36.074 25.9032C36.8206 26.3165 37.4006 26.9032 37.814 27.6632C38.2273 28.4232 38.434 29.3232 38.434 30.3632C38.434 31.1498 38.314 31.8565 38.074 32.4832C37.8473 33.1098 37.514 33.6498 37.074 34.1032C36.634 34.5432 36.1073 34.8832 35.494 35.1232C34.8806 35.3498 34.194 35.4632 33.434 35.4632ZM33.434 33.5632C33.9273 33.5632 34.3606 33.4432 34.734 33.2032C35.1073 32.9632 35.394 32.6098 35.594 32.1432C35.8073 31.6632 35.914 31.0698 35.914 30.3632C35.914 29.2965 35.6873 28.5032 35.234 27.9832C34.7806 27.4498 34.1806 27.1832 33.434 27.1832C32.9406 27.1832 32.5073 27.3032 32.134 27.5432C31.7606 27.7698 31.4673 28.1232 31.254 28.6032C31.054 29.0698 30.954 29.6565 30.954 30.3632C30.954 31.4165 31.1806 32.2165 31.634 32.7632C32.0873 33.2965 32.6873 33.5632 33.434 33.5632ZM45.0574 39.0632C44.3374 39.0632 43.6374 38.9965 42.9574 38.8632C42.2907 38.7298 41.6841 38.5232 41.1374 38.2432C40.8841 38.1098 40.7107 37.9498 40.6174 37.7632C40.5374 37.5765 40.5107 37.3832 40.5374 37.1832C40.5774 36.9965 40.6574 36.8298 40.7774 36.6832C40.9107 36.5365 41.0707 36.4365 41.2574 36.3832C41.4441 36.3298 41.6374 36.3565 41.8374 36.4632C42.4241 36.7565 42.9774 36.9432 43.4974 37.0232C44.0307 37.1165 44.4841 37.1632 44.8574 37.1632C45.7507 37.1632 46.4174 36.9432 46.8574 36.5032C47.3107 36.0765 47.5374 35.4365 47.5374 34.5832V32.7832H47.7174C47.5174 33.4632 47.0974 34.0098 46.4574 34.4232C45.8307 34.8232 45.1174 35.0232 44.3174 35.0232C43.4374 35.0232 42.6707 34.8232 42.0174 34.4232C41.3641 34.0098 40.8574 33.4365 40.4974 32.7032C40.1374 31.9698 39.9574 31.1165 39.9574 30.1432C39.9574 29.4098 40.0574 28.7498 40.2574 28.1632C40.4707 27.5632 40.7641 27.0498 41.1374 26.6232C41.5241 26.1965 41.9841 25.8698 42.5174 25.6432C43.0641 25.4032 43.6641 25.2832 44.3174 25.2832C45.1441 25.2832 45.8641 25.4898 46.4774 25.9032C47.1041 26.3032 47.5107 26.8365 47.6974 27.5032L47.4974 28.0032V26.5832C47.4974 26.1698 47.6041 25.8565 47.8174 25.6432C48.0441 25.4298 48.3507 25.3232 48.7374 25.3232C49.1374 25.3232 49.4441 25.4298 49.6574 25.6432C49.8707 25.8565 49.9774 26.1698 49.9774 26.5832V34.2832C49.9774 35.8698 49.5574 37.0632 48.7174 37.8632C47.8774 38.6632 46.6574 39.0632 45.0574 39.0632ZM44.9974 33.1232C45.5174 33.1232 45.9641 33.0032 46.3374 32.7632C46.7107 32.5232 46.9974 32.1832 47.1974 31.7432C47.4107 31.2898 47.5174 30.7565 47.5174 30.1432C47.5174 29.2232 47.2907 28.5032 46.8374 27.9832C46.3841 27.4498 45.7707 27.1832 44.9974 27.1832C44.4774 27.1832 44.0307 27.3032 43.6574 27.5432C43.2841 27.7832 42.9907 28.1232 42.7774 28.5632C42.5774 29.0032 42.4774 29.5298 42.4774 30.1432C42.4774 31.0632 42.7041 31.7898 43.1574 32.3232C43.6107 32.8565 44.2241 33.1232 44.9974 33.1232ZM59.2374 35.4032C58.8374 35.4032 58.5307 35.2832 58.3174 35.0432C58.1041 34.8032 57.9974 34.4698 57.9974 34.0432V26.7032C57.9974 26.2632 58.1041 25.9298 58.3174 25.7032C58.5307 25.4632 58.8374 25.3432 59.2374 25.3432C59.6374 25.3432 59.9441 25.4632 60.1574 25.7032C60.3841 25.9298 60.4974 26.2632 60.4974 26.7032V34.0432C60.4974 34.4698 60.3907 34.8032 60.1774 35.0432C59.9641 35.2832 59.6507 35.4032 59.2374 35.4032ZM59.2374 23.4832C58.7707 23.4832 58.4041 23.3698 58.1374 23.1432C57.8841 22.9032 57.7574 22.5765 57.7574 22.1632C57.7574 21.7365 57.8841 21.4098 58.1374 21.1832C58.4041 20.9565 58.7707 20.8432 59.2374 20.8432C59.7174 20.8432 60.0841 20.9565 60.3374 21.1832C60.5907 21.4098 60.7174 21.7365 60.7174 22.1632C60.7174 22.5765 60.5907 22.9032 60.3374 23.1432C60.0841 23.3698 59.7174 23.4832 59.2374 23.4832ZM64.335 35.4232C63.935 35.4232 63.6284 35.3165 63.415 35.1032C63.2017 34.8765 63.095 34.5565 63.095 34.1432V26.5832C63.095 26.1698 63.2017 25.8565 63.415 25.6432C63.6284 25.4298 63.9284 25.3232 64.315 25.3232C64.7017 25.3232 65.0017 25.4298 65.215 25.6432C65.4284 25.8565 65.535 26.1698 65.535 26.5832V27.9432L65.315 27.4432C65.6084 26.7365 66.0617 26.2032 66.675 25.8432C67.3017 25.4698 68.0084 25.2832 68.795 25.2832C69.5817 25.2832 70.2284 25.4298 70.735 25.7232C71.2417 26.0165 71.6217 26.4632 71.875 27.0632C72.1284 27.6498 72.255 28.3965 72.255 29.3032V34.1432C72.255 34.5565 72.1484 34.8765 71.935 35.1032C71.7217 35.3165 71.415 35.4232 71.015 35.4232C70.615 35.4232 70.3017 35.3165 70.075 35.1032C69.8617 34.8765 69.755 34.5565 69.755 34.1432V29.4232C69.755 28.6632 69.6084 28.1098 69.315 27.7632C69.035 27.4165 68.595 27.2432 67.995 27.2432C67.2617 27.2432 66.675 27.4765 66.235 27.9432C65.8084 28.3965 65.595 29.0032 65.595 29.7632V34.1432C65.595 34.9965 65.175 35.4232 64.335 35.4232Z" fill="white"/>
</svg>
