<svg width="253" height="58" viewBox="0 0 253 58" fill="none" xmlns="http://www.w3.org/2000/svg">
<rect width="167" height="58" rx="29" fill="#CCCCCC"/>
<path d="M38.84 35.2632C38.4267 35.2632 38.1067 35.1498 37.88 34.9232C37.6533 34.6832 37.54 34.3565 37.54 33.9432V22.4032C37.54 21.9765 37.6467 21.6565 37.86 21.4432C38.0867 21.2165 38.4067 21.1032 38.82 21.1032C39.2333 21.1032 39.5467 21.2165 39.76 21.4432C39.9867 21.6565 40.1 21.9765 40.1 22.4032V33.0832H45.9C46.26 33.0832 46.5333 33.1765 46.72 33.3632C46.92 33.5498 47.02 33.8165 47.02 34.1632C47.02 34.5098 46.92 34.7832 46.72 34.9832C46.5333 35.1698 46.26 35.2632 45.9 35.2632H38.84ZM52.8928 35.4632C51.8795 35.4632 50.9995 35.2565 50.2528 34.8432C49.5061 34.4298 48.9261 33.8432 48.5128 33.0832C48.0995 32.3098 47.8928 31.4032 47.8928 30.3632C47.8928 29.5765 48.0061 28.8765 48.2328 28.2632C48.4728 27.6365 48.8128 27.1032 49.2528 26.6632C49.6928 26.2098 50.2195 25.8698 50.8328 25.6432C51.4461 25.4032 52.1328 25.2832 52.8928 25.2832C53.9061 25.2832 54.7861 25.4898 55.5328 25.9032C56.2795 26.3165 56.8595 26.9032 57.2728 27.6632C57.6861 28.4232 57.8928 29.3232 57.8928 30.3632C57.8928 31.1498 57.7728 31.8565 57.5328 32.4832C57.3061 33.1098 56.9728 33.6498 56.5328 34.1032C56.0928 34.5432 55.5661 34.8832 54.9528 35.1232C54.3395 35.3498 53.6528 35.4632 52.8928 35.4632ZM52.8928 33.5632C53.3861 33.5632 53.8195 33.4432 54.1928 33.2032C54.5661 32.9632 54.8528 32.6098 55.0528 32.1432C55.2661 31.6632 55.3728 31.0698 55.3728 30.3632C55.3728 29.2965 55.1461 28.5032 54.6928 27.9832C54.2395 27.4498 53.6395 27.1832 52.8928 27.1832C52.3995 27.1832 51.9661 27.3032 51.5928 27.5432C51.2195 27.7698 50.9261 28.1232 50.7128 28.6032C50.5128 29.0698 50.4128 29.6565 50.4128 30.3632C50.4128 31.4165 50.6395 32.2165 51.0928 32.7632C51.5461 33.2965 52.1461 33.5632 52.8928 33.5632ZM64.5163 39.0632C63.7963 39.0632 63.0963 38.9965 62.4163 38.8632C61.7496 38.7298 61.1429 38.5232 60.5963 38.2432C60.3429 38.1098 60.1696 37.9498 60.0763 37.7632C59.9963 37.5765 59.9696 37.3832 59.9963 37.1832C60.0363 36.9965 60.1163 36.8298 60.2363 36.6832C60.3696 36.5365 60.5296 36.4365 60.7163 36.3832C60.9029 36.3298 61.0963 36.3565 61.2962 36.4632C61.8829 36.7565 62.4363 36.9432 62.9563 37.0232C63.4896 37.1165 63.9429 37.1632 64.3163 37.1632C65.2096 37.1632 65.8763 36.9432 66.3163 36.5032C66.7696 36.0765 66.9963 35.4365 66.9963 34.5832V32.7832H67.1763C66.9763 33.4632 66.5563 34.0098 65.9163 34.4232C65.2896 34.8232 64.5763 35.0232 63.7763 35.0232C62.8963 35.0232 62.1296 34.8232 61.4763 34.4232C60.8229 34.0098 60.3163 33.4365 59.9563 32.7032C59.5963 31.9698 59.4163 31.1165 59.4163 30.1432C59.4163 29.4098 59.5163 28.7498 59.7163 28.1632C59.9296 27.5632 60.2229 27.0498 60.5963 26.6232C60.9829 26.1965 61.4429 25.8698 61.9763 25.6432C62.5229 25.4032 63.1229 25.2832 63.7763 25.2832C64.6029 25.2832 65.3229 25.4898 65.9363 25.9032C66.5629 26.3032 66.9696 26.8365 67.1563 27.5032L66.9563 28.0032V26.5832C66.9563 26.1698 67.0629 25.8565 67.2763 25.6432C67.5029 25.4298 67.8096 25.3232 68.1963 25.3232C68.5963 25.3232 68.9029 25.4298 69.1163 25.6432C69.3296 25.8565 69.4363 26.1698 69.4363 26.5832V34.2832C69.4363 35.8698 69.0163 37.0632 68.1763 37.8632C67.3363 38.6632 66.1163 39.0632 64.5163 39.0632ZM64.4563 33.1232C64.9763 33.1232 65.4229 33.0032 65.7963 32.7632C66.1696 32.5232 66.4563 32.1832 66.6563 31.7432C66.8696 31.2898 66.9763 30.7565 66.9763 30.1432C66.9763 29.2232 66.7496 28.5032 66.2963 27.9832C65.8429 27.4498 65.2296 27.1832 64.4563 27.1832C63.9363 27.1832 63.4896 27.3032 63.1163 27.5432C62.7429 27.7832 62.4496 28.1232 62.2363 28.5632C62.0363 29.0032 61.9363 29.5298 61.9363 30.1432C61.9363 31.0632 62.1629 31.7898 62.6163 32.3232C63.0696 32.8565 63.6829 33.1232 64.4563 33.1232ZM78.6963 35.4032C78.2963 35.4032 77.9896 35.2832 77.7763 35.0432C77.5629 34.8032 77.4563 34.4698 77.4563 34.0432V26.7032C77.4563 26.2632 77.5629 25.9298 77.7763 25.7032C77.9896 25.4632 78.2963 25.3432 78.6963 25.3432C79.0963 25.3432 79.4029 25.4632 79.6163 25.7032C79.8429 25.9298 79.9563 26.2632 79.9563 26.7032V34.0432C79.9563 34.4698 79.8496 34.8032 79.6363 35.0432C79.4229 35.2832 79.1096 35.4032 78.6963 35.4032ZM78.6963 23.4832C78.2296 23.4832 77.8629 23.3698 77.5963 23.1432C77.3429 22.9032 77.2163 22.5765 77.2163 22.1632C77.2163 21.7365 77.3429 21.4098 77.5963 21.1832C77.8629 20.9565 78.2296 20.8432 78.6963 20.8432C79.1763 20.8432 79.5429 20.9565 79.7963 21.1832C80.0496 21.4098 80.1763 21.7365 80.1763 22.1632C80.1763 22.5765 80.0496 22.9032 79.7963 23.1432C79.5429 23.3698 79.1763 23.4832 78.6963 23.4832ZM83.7939 35.4232C83.3939 35.4232 83.0872 35.3165 82.8739 35.1032C82.6606 34.8765 82.5539 34.5565 82.5539 34.1432V26.5832C82.5539 26.1698 82.6606 25.8565 82.8739 25.6432C83.0872 25.4298 83.3872 25.3232 83.7739 25.3232C84.1606 25.3232 84.4606 25.4298 84.6739 25.6432C84.8872 25.8565 84.9939 26.1698 84.9939 26.5832V27.9432L84.7739 27.4432C85.0672 26.7365 85.5206 26.2032 86.1339 25.8432C86.7606 25.4698 87.4672 25.2832 88.2539 25.2832C89.0406 25.2832 89.6872 25.4298 90.1939 25.7232C90.7006 26.0165 91.0806 26.4632 91.3339 27.0632C91.5872 27.6498 91.7139 28.3965 91.7139 29.3032V34.1432C91.7139 34.5565 91.6072 34.8765 91.3939 35.1032C91.1806 35.3165 90.8739 35.4232 90.4739 35.4232C90.0739 35.4232 89.7606 35.3165 89.5339 35.1032C89.3206 34.8765 89.2139 34.5565 89.2139 34.1432V29.4232C89.2139 28.6632 89.0672 28.1098 88.7739 27.7632C88.4939 27.4165 88.0539 27.2432 87.4539 27.2432C86.7206 27.2432 86.1339 27.4765 85.6939 27.9432C85.2672 28.3965 85.0539 29.0032 85.0539 29.7632V34.1432C85.0539 34.9965 84.6339 35.4232 83.7939 35.4232Z" fill="white"/>
<rect x="108" width="145" height="58" rx="29" fill="#FF4B3A"/>
<path d="M152.83 36.2C152.243 36.2 151.656 36.1533 151.07 36.06C150.483 35.98 149.93 35.8533 149.41 35.68C148.89 35.4933 148.423 35.2667 148.01 35C147.77 34.84 147.603 34.6467 147.51 34.42C147.416 34.1933 147.383 33.9733 147.41 33.76C147.45 33.5333 147.536 33.34 147.67 33.18C147.816 33.0067 147.996 32.9 148.21 32.86C148.423 32.82 148.656 32.88 148.91 33.04C149.496 33.3867 150.116 33.64 150.77 33.8C151.423 33.96 152.11 34.04 152.83 34.04C153.883 34.04 154.65 33.8667 155.13 33.52C155.61 33.16 155.85 32.7 155.85 32.14C155.85 31.6733 155.676 31.3067 155.33 31.04C154.996 30.7733 154.416 30.5533 153.59 30.38L151.39 29.92C150.123 29.6533 149.176 29.2067 148.55 28.58C147.936 27.94 147.63 27.1 147.63 26.06C147.63 25.4067 147.763 24.8133 148.03 24.28C148.296 23.7467 148.67 23.2867 149.15 22.9C149.643 22.5133 150.223 22.22 150.89 22.02C151.57 21.8067 152.316 21.7 153.13 21.7C153.93 21.7 154.69 21.8 155.41 22C156.13 22.2 156.776 22.4933 157.35 22.88C157.563 23.0267 157.703 23.2067 157.77 23.42C157.85 23.6333 157.87 23.8467 157.83 24.06C157.79 24.26 157.696 24.4333 157.55 24.58C157.403 24.7267 157.216 24.8133 156.99 24.84C156.776 24.8667 156.53 24.8 156.25 24.64C155.756 24.36 155.256 24.16 154.75 24.04C154.243 23.92 153.696 23.86 153.11 23.86C152.496 23.86 151.97 23.9467 151.53 24.12C151.09 24.2933 150.75 24.54 150.51 24.86C150.283 25.1667 150.17 25.5333 150.17 25.96C150.17 26.44 150.33 26.8267 150.65 27.12C150.97 27.4 151.516 27.62 152.29 27.78L154.47 28.24C155.79 28.52 156.77 28.96 157.41 29.56C158.063 30.16 158.39 30.96 158.39 31.96C158.39 32.6 158.256 33.18 157.99 33.7C157.736 34.22 157.363 34.6667 156.87 35.04C156.39 35.4133 155.81 35.7 155.13 35.9C154.45 36.1 153.683 36.2 152.83 36.2ZM161.587 36.14C161.187 36.14 160.88 36.02 160.667 35.78C160.454 35.54 160.347 35.2067 160.347 34.78V27.44C160.347 27 160.454 26.6667 160.667 26.44C160.88 26.2 161.187 26.08 161.587 26.08C161.987 26.08 162.294 26.2 162.507 26.44C162.734 26.6667 162.847 27 162.847 27.44V34.78C162.847 35.2067 162.74 35.54 162.527 35.78C162.314 36.02 162 36.14 161.587 36.14ZM161.587 24.22C161.12 24.22 160.754 24.1067 160.487 23.88C160.234 23.64 160.107 23.3133 160.107 22.9C160.107 22.4733 160.234 22.1467 160.487 21.92C160.754 21.6933 161.12 21.58 161.587 21.58C162.067 21.58 162.434 21.6933 162.687 21.92C162.94 22.1467 163.067 22.4733 163.067 22.9C163.067 23.3133 162.94 23.64 162.687 23.88C162.434 24.1067 162.067 24.22 161.587 24.22ZM166.685 36.16C166.285 36.16 165.978 36.0533 165.765 35.84C165.551 35.6133 165.445 35.2933 165.445 34.88V27.32C165.445 26.9067 165.551 26.5933 165.765 26.38C165.978 26.1667 166.278 26.06 166.665 26.06C167.051 26.06 167.351 26.1667 167.565 26.38C167.778 26.5933 167.885 26.9067 167.885 27.32V28.68L167.665 28.18C167.958 27.4733 168.411 26.94 169.025 26.58C169.651 26.2067 170.358 26.02 171.145 26.02C171.931 26.02 172.578 26.1667 173.085 26.46C173.591 26.7533 173.971 27.2 174.225 27.8C174.478 28.3867 174.605 29.1333 174.605 30.04V34.88C174.605 35.2933 174.498 35.6133 174.285 35.84C174.071 36.0533 173.765 36.16 173.365 36.16C172.965 36.16 172.651 36.0533 172.425 35.84C172.211 35.6133 172.105 35.2933 172.105 34.88V30.16C172.105 29.4 171.958 28.8467 171.665 28.5C171.385 28.1533 170.945 27.98 170.345 27.98C169.611 27.98 169.025 28.2133 168.585 28.68C168.158 29.1333 167.945 29.74 167.945 30.5V34.88C167.945 35.7333 167.525 36.16 166.685 36.16ZM181.704 39.8C180.984 39.8 180.284 39.7333 179.604 39.6C178.937 39.4667 178.33 39.26 177.784 38.98C177.53 38.8467 177.357 38.6867 177.264 38.5C177.184 38.3133 177.157 38.12 177.184 37.92C177.224 37.7333 177.304 37.5667 177.424 37.42C177.557 37.2733 177.717 37.1733 177.904 37.12C178.09 37.0667 178.284 37.0933 178.484 37.2C179.07 37.4933 179.624 37.68 180.144 37.76C180.677 37.8533 181.13 37.9 181.504 37.9C182.397 37.9 183.064 37.68 183.504 37.24C183.957 36.8133 184.184 36.1733 184.184 35.32V33.52H184.364C184.164 34.2 183.744 34.7467 183.104 35.16C182.477 35.56 181.764 35.76 180.964 35.76C180.084 35.76 179.317 35.56 178.664 35.16C178.01 34.7467 177.504 34.1733 177.144 33.44C176.784 32.7067 176.604 31.8533 176.604 30.88C176.604 30.1467 176.704 29.4867 176.904 28.9C177.117 28.3 177.41 27.7867 177.784 27.36C178.17 26.9333 178.63 26.6067 179.164 26.38C179.71 26.14 180.31 26.02 180.964 26.02C181.79 26.02 182.51 26.2267 183.124 26.64C183.75 27.04 184.157 27.5733 184.344 28.24L184.144 28.74V27.32C184.144 26.9067 184.25 26.5933 184.464 26.38C184.69 26.1667 184.997 26.06 185.384 26.06C185.784 26.06 186.09 26.1667 186.304 26.38C186.517 26.5933 186.624 26.9067 186.624 27.32V35.02C186.624 36.6067 186.204 37.8 185.364 38.6C184.524 39.4 183.304 39.8 181.704 39.8ZM181.644 33.86C182.164 33.86 182.61 33.74 182.984 33.5C183.357 33.26 183.644 32.92 183.844 32.48C184.057 32.0267 184.164 31.4933 184.164 30.88C184.164 29.96 183.937 29.24 183.484 28.72C183.03 28.1867 182.417 27.92 181.644 27.92C181.124 27.92 180.677 28.04 180.304 28.28C179.93 28.52 179.637 28.86 179.424 29.3C179.224 29.74 179.124 30.2667 179.124 30.88C179.124 31.8 179.35 32.5267 179.804 33.06C180.257 33.5933 180.87 33.86 181.644 33.86ZM200.744 36.2C199.77 36.2 198.91 36.0733 198.164 35.82C197.43 35.5667 196.81 35.1933 196.304 34.7C195.797 34.1933 195.417 33.5667 195.164 32.82C194.91 32.0733 194.784 31.2067 194.784 30.22V23.04C194.784 22.6 194.89 22.2733 195.104 22.06C195.33 21.8467 195.65 21.74 196.064 21.74C196.477 21.74 196.79 21.8467 197.004 22.06C197.23 22.2733 197.344 22.6 197.344 23.04V30.2C197.344 31.4667 197.63 32.42 198.204 33.06C198.79 33.6867 199.637 34 200.744 34C201.85 34 202.69 33.6867 203.264 33.06C203.837 32.42 204.124 31.4667 204.124 30.2V23.04C204.124 22.6 204.23 22.2733 204.444 22.06C204.67 21.8467 204.99 21.74 205.404 21.74C205.804 21.74 206.11 21.8467 206.324 22.06C206.55 22.2733 206.664 22.6 206.664 23.04V30.22C206.664 31.5267 206.437 32.6267 205.984 33.52C205.544 34.4133 204.884 35.0867 204.004 35.54C203.124 35.98 202.037 36.2 200.744 36.2ZM210.649 39.76C210.249 39.76 209.943 39.6533 209.729 39.44C209.516 39.2267 209.409 38.9133 209.409 38.5V27.32C209.409 26.9067 209.516 26.5933 209.729 26.38C209.943 26.1667 210.243 26.06 210.629 26.06C211.029 26.06 211.336 26.1667 211.549 26.38C211.763 26.5933 211.869 26.9067 211.869 27.32V28.88L211.649 28.28C211.849 27.6 212.256 27.0533 212.869 26.64C213.496 26.2267 214.223 26.02 215.049 26.02C215.903 26.02 216.649 26.2267 217.289 26.64C217.943 27.0533 218.449 27.64 218.809 28.4C219.169 29.1467 219.349 30.0467 219.349 31.1C219.349 32.14 219.169 33.0467 218.809 33.82C218.449 34.58 217.949 35.1667 217.309 35.58C216.669 35.9933 215.916 36.2 215.049 36.2C214.236 36.2 213.523 36 212.909 35.6C212.296 35.1867 211.883 34.6533 211.669 34H211.909V38.5C211.909 38.9133 211.796 39.2267 211.569 39.44C211.356 39.6533 211.049 39.76 210.649 39.76ZM214.349 34.3C214.843 34.3 215.276 34.18 215.649 33.94C216.023 33.7 216.309 33.3467 216.509 32.88C216.723 32.4 216.829 31.8067 216.829 31.1C216.829 30.0333 216.603 29.24 216.149 28.72C215.696 28.1867 215.096 27.92 214.349 27.92C213.856 27.92 213.423 28.04 213.049 28.28C212.676 28.5067 212.383 28.86 212.169 29.34C211.969 29.8067 211.869 30.3933 211.869 31.1C211.869 32.1533 212.096 32.9533 212.549 33.5C213.003 34.0333 213.603 34.3 214.349 34.3Z" fill="white"/>
</svg>
